<svg width="301" height="30" viewBox="0 0 301 30" fill="none" xmlns="http://www.w3.org/2000/svg">
<g clip-path="url(#clip0_324_2)">
<path d="M10.175 24.075C8.925 24.075 7.76667 23.85 6.7 23.4C5.63333 22.95 4.7 22.325 3.9 21.525C3.1 20.7083 2.475 19.7667 2.025 18.7C1.59167 17.6333 1.375 16.4833 1.375 15.25C1.375 14.0167 1.6 12.8667 2.05 11.8C2.5 10.7333 3.125 9.8 3.925 9C4.725 8.18333 5.65833 7.55 6.725 7.1C7.80833 6.65 8.975 6.425 10.225 6.425C11.475 6.425 12.6333 6.65 13.7 7.1C14.7833 7.53333 15.7167 8.15 16.5 8.95C17.3 9.75 17.9167 10.6833 18.35 11.75C18.8 12.8 19.025 13.95 19.025 15.2C19.025 16.45 18.8 17.6167 18.35 18.7C17.9 19.7667 17.2667 20.7083 16.45 21.525C15.65 22.325 14.7167 22.95 13.65 23.4C12.5833 23.85 11.425 24.075 10.175 24.075ZM10.175 23.35C11.3083 23.35 12.3667 23.1417 13.35 22.725C14.3333 22.2917 15.1917 21.7083 15.925 20.975C16.6583 20.2417 17.2333 19.3833 17.65 18.4C18.0667 17.4 18.275 16.3333 18.275 15.2C18.275 14.05 18.0667 12.9917 17.65 12.025C17.25 11.0583 16.6833 10.2083 15.95 9.475C15.2333 8.74167 14.3833 8.175 13.4 7.775C12.4333 7.35833 11.375 7.15 10.225 7.15C9.075 7.15 8 7.35833 7 7.775C6.01667 8.19167 5.15833 8.775 4.425 9.525C3.70833 10.2583 3.14167 11.1167 2.725 12.1C2.325 13.0667 2.125 14.1167 2.125 15.25C2.125 16.3833 2.325 17.4417 2.725 18.425C3.14167 19.3917 3.70833 20.25 4.425 21C5.15833 21.7333 6.01667 22.3083 7 22.725C7.98333 23.1417 9.04167 23.35 10.175 23.35ZM10.4 20.475C9.4 20.475 8.50833 20.2583 7.725 19.825C6.94167 19.375 6.325 18.7583 5.875 17.975C5.44167 17.175 5.225 16.2667 5.225 15.25C5.225 14.2333 5.44167 13.3333 5.875 12.55C6.325 11.75 6.94167 11.1333 7.725 10.7C8.50833 10.25 9.4 10.025 10.4 10.025C11.2 10.025 11.9333 10.1833 12.6 10.5C13.2833 10.8167 13.8417 11.2667 14.275 11.85L13.5 12.475C13.1333 11.975 12.675 11.6 12.125 11.35C11.575 11.1 10.9917 10.975 10.375 10.975C9.59167 10.975 8.89167 11.1583 8.275 11.525C7.65833 11.875 7.16667 12.375 6.8 13.025C6.45 13.6583 6.275 14.4 6.275 15.25C6.275 16.1 6.45 16.85 6.8 17.5C7.16667 18.1333 7.65833 18.6333 8.275 19C8.89167 19.35 9.59167 19.525 10.375 19.525C10.9917 19.525 11.575 19.4 12.125 19.15C12.675 18.9 13.1333 18.525 13.5 18.025L14.275 18.625C13.8417 19.225 13.2833 19.6833 12.6 20C11.9333 20.3167 11.2 20.475 10.4 20.475ZM27.8316 24V23.1L35.2316 15.75C35.9316 15.05 36.4566 14.4417 36.8066 13.925C37.1566 13.3917 37.39 12.9 37.5066 12.45C37.64 12 37.7066 11.5583 37.7066 11.125C37.7066 10.025 37.3316 9.15833 36.5816 8.525C35.8316 7.875 34.7316 7.55 33.2816 7.55C32.1816 7.55 31.215 7.71667 30.3816 8.05C29.565 8.38333 28.8566 8.89167 28.2566 9.575L27.3566 8.775C28.0233 8.00833 28.865 7.41667 29.8816 7C30.915 6.58333 32.0816 6.375 33.3816 6.375C34.5316 6.375 35.5233 6.56667 36.3566 6.95C37.2066 7.31667 37.8566 7.85 38.3066 8.55C38.7733 9.23333 39.0066 10.05 39.0066 11C39.0066 11.5667 38.9233 12.125 38.7566 12.675C38.6066 13.2083 38.3233 13.775 37.9066 14.375C37.5066 14.975 36.9233 15.6583 36.1566 16.425L29.2066 23.35L28.7816 22.85H39.8566V24H27.8316ZM49.0453 24.125C47.712 24.125 46.5286 23.7667 45.4953 23.05C44.462 22.3333 43.6536 21.3167 43.0703 20C42.487 18.6667 42.1953 17.0833 42.1953 15.25C42.1953 13.4167 42.487 11.8417 43.0703 10.525C43.6536 9.19167 44.462 8.16667 45.4953 7.45C46.5286 6.73333 47.712 6.375 49.0453 6.375C50.3953 6.375 51.5786 6.73333 52.5953 7.45C53.6286 8.16667 54.437 9.19167 55.0203 10.525C55.6036 11.8417 55.8953 13.4167 55.8953 15.25C55.8953 17.0833 55.6036 18.6667 55.0203 20C54.437 21.3167 53.6286 22.3333 52.5953 23.05C51.5786 23.7667 50.3953 24.125 49.0453 24.125ZM49.0453 22.95C50.162 22.95 51.137 22.65 51.9703 22.05C52.8036 21.4333 53.4536 20.55 53.9203 19.4C54.387 18.25 54.6203 16.8667 54.6203 15.25C54.6203 13.6167 54.387 12.2333 53.9203 11.1C53.4536 9.95 52.8036 9.075 51.9703 8.475C51.137 7.85833 50.162 7.55 49.0453 7.55C47.9453 7.55 46.9703 7.85833 46.1203 8.475C45.287 9.075 44.637 9.95 44.1703 11.1C43.7036 12.2333 43.4703 13.6167 43.4703 15.25C43.4703 16.8667 43.7036 18.25 44.1703 19.4C44.637 20.55 45.287 21.4333 46.1203 22.05C46.9703 22.65 47.9453 22.95 49.0453 22.95ZM58.3004 24V23.1L65.7004 15.75C66.4004 15.05 66.9254 14.4417 67.2754 13.925C67.6254 13.3917 67.8587 12.9 67.9754 12.45C68.1087 12 68.1754 11.5583 68.1754 11.125C68.1754 10.025 67.8004 9.15833 67.0504 8.525C66.3004 7.875 65.2004 7.55 63.7504 7.55C62.6504 7.55 61.6837 7.71667 60.8504 8.05C60.0337 8.38333 59.3254 8.89167 58.7254 9.575L57.8254 8.775C58.4921 8.00833 59.3337 7.41667 60.3504 7C61.3837 6.58333 62.5504 6.375 63.8504 6.375C65.0004 6.375 65.9921 6.56667 66.8254 6.95C67.6754 7.31667 68.3254 7.85 68.7754 8.55C69.2421 9.23333 69.4754 10.05 69.4754 11C69.4754 11.5667 69.3921 12.125 69.2254 12.675C69.0754 13.2083 68.7921 13.775 68.3754 14.375C67.9754 14.975 67.3921 15.6583 66.6254 16.425L59.6754 23.35L59.2504 22.85H70.3254V24H58.3004ZM77.8623 24.125C76.579 24.125 75.379 23.9083 74.2623 23.475C73.1623 23.0417 72.304 22.475 71.6873 21.775L72.3373 20.8C72.8706 21.4167 73.6206 21.9333 74.5873 22.35C75.5706 22.75 76.6623 22.95 77.8623 22.95C79.429 22.95 80.6206 22.6 81.4373 21.9C82.2706 21.2 82.6873 20.2583 82.6873 19.075C82.6873 17.9083 82.2706 16.975 81.4373 16.275C80.6206 15.5583 79.3373 15.2 77.5873 15.2H76.4873V14.275L82.0623 7.15L82.2373 7.65H72.3373V6.5H83.3123V7.4L77.7623 14.525L77.2123 14.125H77.7623C79.8456 14.125 81.404 14.5833 82.4373 15.5C83.4706 16.4167 83.9873 17.6083 83.9873 19.075C83.9873 20.0417 83.754 20.9083 83.2873 21.675C82.8373 22.4417 82.154 23.0417 81.2373 23.475C80.3373 23.9083 79.2123 24.125 77.8623 24.125ZM86.7527 27.575L87.7277 23.35L87.8527 24.075C87.5361 24.075 87.2694 23.975 87.0527 23.775C86.8527 23.575 86.7527 23.325 86.7527 23.025C86.7527 22.725 86.8527 22.475 87.0527 22.275C87.2694 22.075 87.5194 21.975 87.8027 21.975C88.1194 21.975 88.3694 22.0833 88.5527 22.3C88.7527 22.5 88.8527 22.7417 88.8527 23.025C88.8527 23.1417 88.8444 23.2583 88.8277 23.375C88.8111 23.4917 88.7861 23.6083 88.7527 23.725C88.7194 23.8417 88.6777 23.9917 88.6277 24.175L87.6527 27.575H86.7527ZM99.7785 24V6.5H100.854L108.979 20.525H108.404L116.504 6.5H117.554L117.579 24H116.329L116.304 8.425H116.654L108.979 21.675H108.354L100.654 8.425H101.029V24H99.7785ZM131.505 24V21.025L131.455 20.575V15.675C131.455 14.4583 131.122 13.5333 130.455 12.9C129.805 12.2667 128.847 11.95 127.58 11.95C126.68 11.95 125.838 12.1083 125.055 12.425C124.288 12.725 123.63 13.1167 123.08 13.6L122.455 12.7C123.105 12.1167 123.888 11.6667 124.805 11.35C125.722 11.0167 126.68 10.85 127.68 10.85C129.297 10.85 130.538 11.2583 131.405 12.075C132.272 12.8917 132.705 14.1083 132.705 15.725V24H131.505ZM126.805 24.1C125.838 24.1 124.997 23.95 124.28 23.65C123.58 23.3333 123.038 22.8917 122.655 22.325C122.288 21.7583 122.105 21.1083 122.105 20.375C122.105 19.7083 122.255 19.1083 122.555 18.575C122.872 18.025 123.388 17.5833 124.105 17.25C124.822 16.9 125.78 16.725 126.98 16.725H131.78V17.7H127.005C125.655 17.7 124.705 17.95 124.155 18.45C123.622 18.95 123.355 19.575 123.355 20.325C123.355 21.1583 123.672 21.825 124.305 22.325C124.938 22.825 125.83 23.075 126.98 23.075C128.08 23.075 129.005 22.825 129.755 22.325C130.522 21.825 131.088 21.1 131.455 20.15L131.805 21C131.455 21.95 130.855 22.7083 130.005 23.275C129.172 23.825 128.105 24.1 126.805 24.1ZM137.855 24V5.45H139.105V24H137.855ZM152.599 24V21.025L152.549 20.575V15.675C152.549 14.4583 152.215 13.5333 151.549 12.9C150.899 12.2667 149.94 11.95 148.674 11.95C147.774 11.95 146.932 12.1083 146.149 12.425C145.382 12.725 144.724 13.1167 144.174 13.6L143.549 12.7C144.199 12.1167 144.982 11.6667 145.899 11.35C146.815 11.0167 147.774 10.85 148.774 10.85C150.39 10.85 151.632 11.2583 152.499 12.075C153.365 12.8917 153.799 14.1083 153.799 15.725V24H152.599ZM147.899 24.1C146.932 24.1 146.09 23.95 145.374 23.65C144.674 23.3333 144.132 22.8917 143.749 22.325C143.382 21.7583 143.199 21.1083 143.199 20.375C143.199 19.7083 143.349 19.1083 143.649 18.575C143.965 18.025 144.482 17.5833 145.199 17.25C145.915 16.9 146.874 16.725 148.074 16.725H152.874V17.7H148.099C146.749 17.7 145.799 17.95 145.249 18.45C144.715 18.95 144.449 19.575 144.449 20.325C144.449 21.1583 144.765 21.825 145.399 22.325C146.032 22.825 146.924 23.075 148.074 23.075C149.174 23.075 150.099 22.825 150.849 22.325C151.615 21.825 152.182 21.1 152.549 20.15L152.899 21C152.549 21.95 151.949 22.7083 151.099 23.275C150.265 23.825 149.199 24.1 147.899 24.1ZM164.124 24.1C162.857 24.1 161.724 23.8167 160.724 23.25C159.74 22.6833 158.957 21.9 158.374 20.9C157.807 19.9 157.524 18.7583 157.524 17.475C157.524 16.175 157.807 15.025 158.374 14.025C158.957 13.025 159.74 12.25 160.724 11.7C161.724 11.1333 162.857 10.85 164.124 10.85C165.174 10.85 166.124 11.05 166.974 11.45C167.84 11.85 168.54 12.45 169.074 13.25L168.149 13.925C167.682 13.2583 167.099 12.7667 166.399 12.45C165.699 12.1333 164.94 11.975 164.124 11.975C163.107 11.975 162.19 12.2083 161.374 12.675C160.574 13.125 159.94 13.7667 159.474 14.6C159.024 15.4167 158.799 16.375 158.799 17.475C158.799 18.575 159.024 19.5417 159.474 20.375C159.94 21.1917 160.574 21.8333 161.374 22.3C162.19 22.75 163.107 22.975 164.124 22.975C164.94 22.975 165.699 22.8167 166.399 22.5C167.099 22.1833 167.682 21.6917 168.149 21.025L169.074 21.7C168.54 22.5 167.84 23.1 166.974 23.5C166.124 23.9 165.174 24.1 164.124 24.1ZM178.971 10.85C180.038 10.85 180.963 11.0583 181.746 11.475C182.546 11.875 183.163 12.4917 183.596 13.325C184.046 14.1417 184.271 15.1583 184.271 16.375V24H183.021V16.475C183.021 15.0083 182.646 13.8917 181.896 13.125C181.163 12.3583 180.13 11.975 178.796 11.975C177.78 11.975 176.896 12.1833 176.146 12.6C175.396 13.0167 174.821 13.6 174.421 14.35C174.038 15.1 173.846 16 173.846 17.05V24H172.596V5.45H173.846V14.575L173.621 14.175C174.021 13.1417 174.68 12.3333 175.596 11.75C176.513 11.15 177.638 10.85 178.971 10.85ZM189.418 24V10.95H190.668V24H189.418ZM190.043 7.775C189.759 7.775 189.518 7.675 189.318 7.475C189.118 7.275 189.018 7.04167 189.018 6.775C189.018 6.49167 189.118 6.25 189.318 6.05C189.518 5.85 189.759 5.75 190.043 5.75C190.343 5.75 190.584 5.85 190.768 6.05C190.968 6.23333 191.068 6.46667 191.068 6.75C191.068 7.03333 190.968 7.275 190.768 7.475C190.584 7.675 190.343 7.775 190.043 7.775ZM195.636 28.95C195.036 28.95 194.469 28.85 193.936 28.65C193.419 28.45 192.978 28.1583 192.611 27.775L193.236 26.825C193.569 27.175 193.928 27.4333 194.311 27.6C194.711 27.7667 195.161 27.85 195.661 27.85C196.261 27.85 196.786 27.6833 197.236 27.35C197.703 27.0167 198.136 26.4083 198.536 25.525L199.436 23.525L199.611 23.3L205.136 10.95H206.411L199.711 25.775C199.361 26.575 198.978 27.2 198.561 27.65C198.161 28.1167 197.719 28.45 197.236 28.65C196.753 28.85 196.219 28.95 195.636 28.95ZM199.411 24.325L193.361 10.95H194.686L200.186 23.225L199.411 24.325ZM214.078 24.1C212.761 24.1 211.595 23.8167 210.578 23.25C209.578 22.6833 208.786 21.9 208.203 20.9C207.636 19.9 207.353 18.7583 207.353 17.475C207.353 16.175 207.62 15.0333 208.153 14.05C208.703 13.05 209.453 12.2667 210.403 11.7C211.353 11.1333 212.42 10.85 213.603 10.85C214.786 10.85 215.845 11.125 216.778 11.675C217.728 12.225 218.47 13 219.003 14C219.553 14.9833 219.828 16.125 219.828 17.425C219.828 17.475 219.82 17.5333 219.803 17.6C219.803 17.65 219.803 17.7083 219.803 17.775H208.278V16.8H219.128L218.628 17.275C218.645 16.2583 218.428 15.35 217.978 14.55C217.545 13.7333 216.953 13.1 216.203 12.65C215.453 12.1833 214.586 11.95 213.603 11.95C212.636 11.95 211.77 12.1833 211.003 12.65C210.253 13.1 209.661 13.7333 209.228 14.55C208.795 15.35 208.578 16.2667 208.578 17.3V17.525C208.578 18.5917 208.811 19.5417 209.278 20.375C209.761 21.1917 210.42 21.8333 211.253 22.3C212.086 22.75 213.036 22.975 214.103 22.975C214.936 22.975 215.711 22.825 216.428 22.525C217.161 22.225 217.778 21.7667 218.278 21.15L219.003 21.975C218.436 22.675 217.72 23.2083 216.853 23.575C216.003 23.925 215.078 24.1 214.078 24.1ZM226.751 24L220.876 10.95H222.201L227.701 23.3H227.101L232.651 10.95H233.926L228.026 24H226.751Z" fill="white"/>
<path d="M243.34 14.572H247.672V15.604H243.34V14.572ZM243.46 19H242.26V10.6H248.188V11.644H243.46V19ZM253.575 19.096C252.935 19.096 252.339 18.988 251.787 18.772C251.243 18.556 250.771 18.256 250.371 17.872C249.971 17.48 249.659 17.024 249.435 16.504C249.211 15.984 249.099 15.416 249.099 14.8C249.099 14.184 249.211 13.616 249.435 13.096C249.659 12.576 249.971 12.124 250.371 11.74C250.771 11.348 251.243 11.044 251.787 10.828C252.331 10.612 252.927 10.504 253.575 10.504C254.215 10.504 254.803 10.612 255.339 10.828C255.883 11.036 256.355 11.336 256.755 11.728C257.163 12.112 257.475 12.564 257.691 13.084C257.915 13.604 258.027 14.176 258.027 14.8C258.027 15.424 257.915 15.996 257.691 16.516C257.475 17.036 257.163 17.492 256.755 17.884C256.355 18.268 255.883 18.568 255.339 18.784C254.803 18.992 254.215 19.096 253.575 19.096ZM253.575 18.028C254.039 18.028 254.467 17.948 254.859 17.788C255.259 17.628 255.603 17.404 255.891 17.116C256.187 16.82 256.415 16.476 256.575 16.084C256.743 15.692 256.827 15.264 256.827 14.8C256.827 14.336 256.743 13.908 256.575 13.516C256.415 13.124 256.187 12.784 255.891 12.496C255.603 12.2 255.259 11.972 254.859 11.812C254.467 11.652 254.039 11.572 253.575 11.572C253.103 11.572 252.667 11.652 252.267 11.812C251.875 11.972 251.531 12.2 251.235 12.496C250.939 12.784 250.707 13.124 250.539 13.516C250.379 13.908 250.299 14.336 250.299 14.8C250.299 15.264 250.379 15.692 250.539 16.084C250.707 16.476 250.939 16.82 251.235 17.116C251.531 17.404 251.875 17.628 252.267 17.788C252.667 17.948 253.103 18.028 253.575 18.028ZM260.918 16.972L260.858 15.508L265.622 10.6H266.99L263.306 14.488L262.634 15.232L260.918 16.972ZM259.862 19V10.6H261.062V19H259.862ZM265.814 19L262.37 14.992L263.174 14.104L267.218 19H265.814ZM270.759 19.096C270.119 19.096 269.507 19 268.923 18.808C268.339 18.608 267.879 18.352 267.543 18.04L267.987 17.104C268.307 17.384 268.715 17.616 269.211 17.8C269.707 17.984 270.223 18.076 270.759 18.076C271.247 18.076 271.643 18.02 271.947 17.908C272.251 17.796 272.475 17.644 272.619 17.452C272.763 17.252 272.835 17.028 272.835 16.78C272.835 16.492 272.739 16.26 272.547 16.084C272.363 15.908 272.119 15.768 271.815 15.664C271.519 15.552 271.191 15.456 270.831 15.376C270.471 15.296 270.107 15.204 269.739 15.1C269.379 14.988 269.047 14.848 268.743 14.68C268.447 14.512 268.207 14.288 268.023 14.008C267.839 13.72 267.747 13.352 267.747 12.904C267.747 12.472 267.859 12.076 268.083 11.716C268.315 11.348 268.667 11.056 269.139 10.84C269.619 10.616 270.227 10.504 270.963 10.504C271.451 10.504 271.935 10.568 272.415 10.696C272.895 10.824 273.311 11.008 273.663 11.248L273.267 12.208C272.907 11.968 272.527 11.796 272.127 11.692C271.727 11.58 271.339 11.524 270.963 11.524C270.491 11.524 270.103 11.584 269.799 11.704C269.495 11.824 269.271 11.984 269.127 12.184C268.991 12.384 268.923 12.608 268.923 12.856C268.923 13.152 269.015 13.388 269.199 13.564C269.391 13.74 269.635 13.88 269.931 13.984C270.235 14.088 270.567 14.184 270.927 14.272C271.287 14.352 271.647 14.444 272.007 14.548C272.375 14.652 272.707 14.788 273.003 14.956C273.307 15.124 273.551 15.348 273.735 15.628C273.919 15.908 274.011 16.268 274.011 16.708C274.011 17.132 273.895 17.528 273.663 17.896C273.431 18.256 273.071 18.548 272.583 18.772C272.103 18.988 271.495 19.096 270.759 19.096ZM275.764 19V10.6H279.532C280.5 10.6 281.244 10.796 281.764 11.188C282.284 11.572 282.544 12.1 282.544 12.772C282.544 13.228 282.44 13.612 282.232 13.924C282.032 14.236 281.76 14.476 281.416 14.644C281.072 14.812 280.7 14.896 280.3 14.896L280.516 14.536C280.996 14.536 281.42 14.62 281.788 14.788C282.156 14.956 282.448 15.204 282.664 15.532C282.88 15.852 282.988 16.252 282.988 16.732C282.988 17.452 282.716 18.012 282.172 18.412C281.636 18.804 280.836 19 279.772 19H275.764ZM276.964 18.028H279.724C280.388 18.028 280.896 17.916 281.248 17.692C281.6 17.468 281.776 17.116 281.776 16.636C281.776 16.148 281.6 15.792 281.248 15.568C280.896 15.344 280.388 15.232 279.724 15.232H276.856V14.26H279.424C280.032 14.26 280.504 14.148 280.84 13.924C281.176 13.7 281.344 13.364 281.344 12.916C281.344 12.468 281.176 12.132 280.84 11.908C280.504 11.684 280.032 11.572 279.424 11.572H276.964V18.028ZM283.574 19L287.378 10.6H288.566L292.382 19H291.122L287.726 11.272H288.206L284.81 19H283.574ZM285.194 16.9L285.518 15.94H290.246L290.594 16.9H285.194ZM294.727 14.224H299.047V15.244H294.727V14.224ZM294.835 17.956H299.731V19H293.635V10.6H299.563V11.644H294.835V17.956Z" fill="white"/>
</g>
<defs>
<clipPath id="clip0_324_2">
<rect width="301" height="30" fill="white"/>
</clipPath>
</defs>
</svg>
