<svg width="24" height="24" viewBox="0 0 24 24" fill="none" xmlns="http://www.w3.org/2000/svg">
<path d="M7 0.75C3.55273 0.75 0.75 3.55273 0.75 7V17C0.75 20.4473 3.55273 23.25 7 23.25H17C20.4473 23.25 23.25 20.4473 23.25 17V7C23.25 3.55273 20.4473 0.75 17 0.75H7ZM7 3.25H17C19.0654 3.25 20.75 4.93457 20.75 7V17C20.75 19.0654 19.0654 20.75 17 20.75H7C4.93457 20.75 3.25 19.0654 3.25 17V7C3.25 4.93457 4.93457 3.25 7 3.25ZM18.25 4.5C17.5615 4.5 17 5.06152 17 5.75C17 6.43848 17.5615 7 18.25 7C18.9385 7 19.5 6.43848 19.5 5.75C19.5 5.06152 18.9385 4.5 18.25 4.5ZM12 5.75C8.55273 5.75 5.75 8.55273 5.75 12C5.75 15.4473 8.55273 18.25 12 18.25C15.4473 18.25 18.25 15.4473 18.25 12C18.25 8.55273 15.4473 5.75 12 5.75ZM12 8.25C14.0654 8.25 15.75 9.93457 15.75 12C15.75 14.0654 14.0654 15.75 12 15.75C9.93457 15.75 8.25 14.0654 8.25 12C8.25 9.93457 9.93457 8.25 12 8.25Z" fill="white"/>
</svg>
