<svg width="238" height="27" viewBox="0 0 238 27" fill="none" xmlns="http://www.w3.org/2000/svg">
<g clip-path="url(#clip0_102_2)">
<path d="M8.208 21.24L7.884 14.508L19.944 1.8H26.424L15.552 13.5L12.312 16.956L8.208 21.24ZM2.988 27V1.8H8.784V27H2.988ZM20.232 27L11.268 16.02L15.084 11.88L27.036 27H20.232ZM25.1643 27L36.3963 1.8H42.1563L53.4243 27H47.3043L38.0883 4.752H40.3923L31.1403 27H25.1643ZM30.7803 21.6L32.3283 17.172H45.2883L46.8723 21.6H30.7803ZM56.0388 27V1.8H66.9468C69.2028 1.8 71.1468 2.172 72.7788 2.916C74.4108 3.636 75.6708 4.68 76.5588 6.048C77.4468 7.416 77.8908 9.048 77.8908 10.944C77.8908 12.816 77.4468 14.436 76.5588 15.804C75.6708 17.148 74.4108 18.18 72.7788 18.9C71.1468 19.62 69.2028 19.98 66.9468 19.98H59.2788L61.8708 17.424V27H56.0388ZM72.0588 27L65.7588 17.856H71.9868L78.3588 27H72.0588ZM61.8708 18.072L59.2788 15.336H66.6228C68.4228 15.336 69.7668 14.952 70.6548 14.184C71.5428 13.392 71.9868 12.312 71.9868 10.944C71.9868 9.552 71.5428 8.472 70.6548 7.704C69.7668 6.936 68.4228 6.552 66.6228 6.552H59.2788L61.8708 3.78V18.072ZM79.1994 27L90.4314 1.8H96.1914L107.459 27H101.339L92.1234 4.752H94.4274L85.1754 27H79.1994ZM84.8154 21.6L86.3634 17.172H99.3234L100.907 21.6H84.8154ZM120.269 27V1.8H132.581C135.749 1.8 138.125 2.4 139.709 3.6C141.317 4.8 142.121 6.384 142.121 8.352C142.121 9.672 141.797 10.824 141.149 11.808C140.501 12.768 139.613 13.512 138.485 14.04C137.357 14.568 136.061 14.832 134.597 14.832L135.281 13.356C136.865 13.356 138.269 13.62 139.493 14.148C140.717 14.652 141.665 15.408 142.337 16.416C143.033 17.424 143.381 18.66 143.381 20.124C143.381 22.284 142.529 23.976 140.825 25.2C139.121 26.4 136.613 27 133.301 27H120.269ZM126.065 22.608H132.869C134.381 22.608 135.521 22.368 136.289 21.888C137.081 21.384 137.477 20.592 137.477 19.512C137.477 18.456 137.081 17.676 136.289 17.172C135.521 16.644 134.381 16.38 132.869 16.38H125.633V12.132H131.861C133.277 12.132 134.357 11.892 135.101 11.412C135.869 10.908 136.253 10.152 136.253 9.144C136.253 8.16 135.869 7.428 135.101 6.948C134.357 6.444 133.277 6.192 131.861 6.192H126.065V22.608ZM147.797 27V1.8H153.629V27H147.797ZM159.609 27V1.8H165.441V22.248H178.077V27H159.609Z" fill="white"/>
<path d="M184.034 10.09C183.374 10.09 182.769 9.94 182.219 9.64C181.679 9.33 181.244 8.875 180.914 8.275C180.594 7.675 180.434 6.925 180.434 6.025C180.434 5.125 180.589 4.375 180.899 3.775C181.219 3.175 181.649 2.725 182.189 2.425C182.739 2.125 183.354 1.975 184.034 1.975C184.814 1.975 185.504 2.145 186.104 2.485C186.704 2.825 187.179 3.3 187.529 3.91C187.879 4.51 188.054 5.215 188.054 6.025C188.054 6.835 187.879 7.545 187.529 8.155C187.179 8.765 186.704 9.24 186.104 9.58C185.504 9.92 184.814 10.09 184.034 10.09ZM179.819 12.91V2.05H181.199V4.195L181.109 6.04L181.259 7.885V12.91H179.819ZM183.914 8.83C184.424 8.83 184.879 8.715 185.279 8.485C185.689 8.255 186.009 7.93 186.239 7.51C186.479 7.08 186.599 6.585 186.599 6.025C186.599 5.455 186.479 4.965 186.239 4.555C186.009 4.135 185.689 3.81 185.279 3.58C184.879 3.35 184.424 3.235 183.914 3.235C183.414 3.235 182.959 3.35 182.549 3.58C182.149 3.81 181.829 4.135 181.589 4.555C181.359 4.965 181.244 5.455 181.244 6.025C181.244 6.585 181.359 7.08 181.589 7.51C181.829 7.93 182.149 8.255 182.549 8.485C182.959 8.715 183.414 8.83 183.914 8.83ZM193.449 10.09C192.649 10.09 191.939 9.915 191.319 9.565C190.699 9.215 190.209 8.735 189.849 8.125C189.489 7.505 189.309 6.805 189.309 6.025C189.309 5.235 189.489 4.535 189.849 3.925C190.209 3.315 190.699 2.84 191.319 2.5C191.939 2.15 192.649 1.975 193.449 1.975C194.239 1.975 194.944 2.15 195.564 2.5C196.194 2.84 196.684 3.315 197.034 3.925C197.394 4.525 197.574 5.225 197.574 6.025C197.574 6.815 197.394 7.515 197.034 8.125C196.684 8.735 196.194 9.215 195.564 9.565C194.944 9.915 194.239 10.09 193.449 10.09ZM193.449 8.83C193.959 8.83 194.414 8.715 194.814 8.485C195.224 8.255 195.544 7.93 195.774 7.51C196.004 7.08 196.119 6.585 196.119 6.025C196.119 5.455 196.004 4.965 195.774 4.555C195.544 4.135 195.224 3.81 194.814 3.58C194.414 3.35 193.959 3.235 193.449 3.235C192.939 3.235 192.484 3.35 192.084 3.58C191.684 3.81 191.364 4.135 191.124 4.555C190.884 4.965 190.764 5.455 190.764 6.025C190.764 6.585 190.884 7.08 191.124 7.51C191.364 7.93 191.684 8.255 192.084 8.485C192.484 8.715 192.939 8.83 193.449 8.83ZM203.105 10.09C202.255 10.09 201.505 9.915 200.855 9.565C200.215 9.215 199.715 8.735 199.355 8.125C199.005 7.515 198.83 6.815 198.83 6.025C198.83 5.235 199 4.535 199.34 3.925C199.69 3.315 200.165 2.84 200.765 2.5C201.375 2.15 202.06 1.975 202.82 1.975C203.59 1.975 204.27 2.145 204.86 2.485C205.45 2.825 205.91 3.305 206.24 3.925C206.58 4.535 206.75 5.25 206.75 6.07C206.75 6.13 206.745 6.2 206.735 6.28C206.735 6.36 206.73 6.435 206.72 6.505H199.955V5.47H205.97L205.385 5.83C205.395 5.32 205.29 4.865 205.07 4.465C204.85 4.065 204.545 3.755 204.155 3.535C203.775 3.305 203.33 3.19 202.82 3.19C202.32 3.19 201.875 3.305 201.485 3.535C201.095 3.755 200.79 4.07 200.57 4.48C200.35 4.88 200.24 5.34 200.24 5.86V6.1C200.24 6.63 200.36 7.105 200.6 7.525C200.85 7.935 201.195 8.255 201.635 8.485C202.075 8.715 202.58 8.83 203.15 8.83C203.62 8.83 204.045 8.75 204.425 8.59C204.815 8.43 205.155 8.19 205.445 7.87L206.24 8.8C205.88 9.22 205.43 9.54 204.89 9.76C204.36 9.98 203.765 10.09 203.105 10.09ZM211.48 10.09C210.68 10.09 210.06 9.875 209.62 9.445C209.18 9.015 208.96 8.4 208.96 7.6V0.31H210.4V7.54C210.4 7.97 210.505 8.3 210.715 8.53C210.935 8.76 211.245 8.875 211.645 8.875C212.095 8.875 212.47 8.75 212.77 8.5L213.22 9.535C213 9.725 212.735 9.865 212.425 9.955C212.125 10.045 211.81 10.09 211.48 10.09ZM207.61 3.235V2.05H212.68V3.235H207.61ZM218.237 10.09C217.387 10.09 216.637 9.915 215.987 9.565C215.347 9.215 214.847 8.735 214.487 8.125C214.137 7.515 213.962 6.815 213.962 6.025C213.962 5.235 214.132 4.535 214.472 3.925C214.822 3.315 215.297 2.84 215.897 2.5C216.507 2.15 217.192 1.975 217.952 1.975C218.722 1.975 219.402 2.145 219.992 2.485C220.582 2.825 221.042 3.305 221.372 3.925C221.712 4.535 221.882 5.25 221.882 6.07C221.882 6.13 221.877 6.2 221.867 6.28C221.867 6.36 221.862 6.435 221.852 6.505H215.087V5.47H221.102L220.517 5.83C220.527 5.32 220.422 4.865 220.202 4.465C219.982 4.065 219.677 3.755 219.287 3.535C218.907 3.305 218.462 3.19 217.952 3.19C217.452 3.19 217.007 3.305 216.617 3.535C216.227 3.755 215.922 4.07 215.702 4.48C215.482 4.88 215.372 5.34 215.372 5.86V6.1C215.372 6.63 215.492 7.105 215.732 7.525C215.982 7.935 216.327 8.255 216.767 8.485C217.207 8.715 217.712 8.83 218.282 8.83C218.752 8.83 219.177 8.75 219.557 8.59C219.947 8.43 220.287 8.19 220.577 7.87L221.372 8.8C221.012 9.22 220.562 9.54 220.022 9.76C219.492 9.98 218.897 10.09 218.237 10.09ZM226.162 10.09C225.502 10.09 224.872 10 224.272 9.82C223.682 9.64 223.217 9.42 222.877 9.16L223.477 8.02C223.817 8.25 224.237 8.445 224.737 8.605C225.237 8.765 225.747 8.845 226.267 8.845C226.937 8.845 227.417 8.75 227.707 8.56C228.007 8.37 228.157 8.105 228.157 7.765C228.157 7.515 228.067 7.32 227.887 7.18C227.707 7.04 227.467 6.935 227.167 6.865C226.877 6.795 226.552 6.735 226.192 6.685C225.832 6.625 225.472 6.555 225.112 6.475C224.752 6.385 224.422 6.265 224.122 6.115C223.822 5.955 223.582 5.74 223.402 5.47C223.222 5.19 223.132 4.82 223.132 4.36C223.132 3.88 223.267 3.46 223.537 3.1C223.807 2.74 224.187 2.465 224.677 2.275C225.177 2.075 225.767 1.975 226.447 1.975C226.967 1.975 227.492 2.04 228.022 2.17C228.562 2.29 229.002 2.465 229.342 2.695L228.727 3.835C228.367 3.595 227.992 3.43 227.602 3.34C227.212 3.25 226.822 3.205 226.432 3.205C225.802 3.205 225.332 3.31 225.022 3.52C224.712 3.72 224.557 3.98 224.557 4.3C224.557 4.57 224.647 4.78 224.827 4.93C225.017 5.07 225.257 5.18 225.547 5.26C225.847 5.34 226.177 5.41 226.537 5.47C226.897 5.52 227.257 5.59 227.617 5.68C227.977 5.76 228.302 5.875 228.592 6.025C228.892 6.175 229.132 6.385 229.312 6.655C229.502 6.925 229.597 7.285 229.597 7.735C229.597 8.215 229.457 8.63 229.177 8.98C228.897 9.33 228.502 9.605 227.992 9.805C227.482 9.995 226.872 10.09 226.162 10.09ZM233.676 10.09C233.016 10.09 232.386 10 231.786 9.82C231.196 9.64 230.731 9.42 230.391 9.16L230.991 8.02C231.331 8.25 231.751 8.445 232.251 8.605C232.751 8.765 233.261 8.845 233.781 8.845C234.451 8.845 234.931 8.75 235.221 8.56C235.521 8.37 235.671 8.105 235.671 7.765C235.671 7.515 235.581 7.32 235.401 7.18C235.221 7.04 234.981 6.935 234.681 6.865C234.391 6.795 234.066 6.735 233.706 6.685C233.346 6.625 232.986 6.555 232.626 6.475C232.266 6.385 231.936 6.265 231.636 6.115C231.336 5.955 231.096 5.74 230.916 5.47C230.736 5.19 230.646 4.82 230.646 4.36C230.646 3.88 230.781 3.46 231.051 3.1C231.321 2.74 231.701 2.465 232.191 2.275C232.691 2.075 233.281 1.975 233.961 1.975C234.481 1.975 235.006 2.04 235.536 2.17C236.076 2.29 236.516 2.465 236.856 2.695L236.241 3.835C235.881 3.595 235.506 3.43 235.116 3.34C234.726 3.25 234.336 3.205 233.946 3.205C233.316 3.205 232.846 3.31 232.536 3.52C232.226 3.72 232.071 3.98 232.071 4.3C232.071 4.57 232.161 4.78 232.341 4.93C232.531 5.07 232.771 5.18 233.061 5.26C233.361 5.34 233.691 5.41 234.051 5.47C234.411 5.52 234.771 5.59 235.131 5.68C235.491 5.76 235.816 5.875 236.106 6.025C236.406 6.175 236.646 6.385 236.826 6.655C237.016 6.925 237.111 7.285 237.111 7.735C237.111 8.215 236.971 8.63 236.691 8.98C236.411 9.33 236.016 9.605 235.506 9.805C234.996 9.995 234.386 10.09 233.676 10.09Z" fill="white"/>
</g>
<defs>
<clipPath id="clip0_102_2">
<rect width="238" height="27" fill="white"/>
</clipPath>
</defs>
</svg>
