<svg width="235" height="27" viewBox="0 0 235 27" fill="none" xmlns="http://www.w3.org/2000/svg">
<path d="M8.14 19.06C7.14 19.06 6.21333 18.88 5.36 18.52C4.50667 18.16 3.76 17.66 3.12 17.02C2.48 16.3667 1.98 15.6133 1.62 14.76C1.27333 13.9067 1.1 12.9867 1.1 12C1.1 11.0133 1.28 10.0933 1.64 9.24C2 8.38667 2.5 7.64 3.14 7C3.78 6.34667 4.52667 5.84 5.38 5.48C6.24667 5.12 7.18 4.94 8.18 4.94C9.18 4.94 10.1067 5.12 10.96 5.48C11.8267 5.82667 12.5733 6.32 13.2 6.96C13.84 7.6 14.3333 8.34667 14.68 9.2C15.04 10.04 15.22 10.96 15.22 11.96C15.22 12.96 15.04 13.8933 14.68 14.76C14.32 15.6133 13.8133 16.3667 13.16 17.02C12.52 17.66 11.7733 18.16 10.92 18.52C10.0667 18.88 9.14 19.06 8.14 19.06ZM8.14 18.48C9.04667 18.48 9.89333 18.3133 10.68 17.98C11.4667 17.6333 12.1533 17.1667 12.74 16.58C13.3267 15.9933 13.7867 15.3067 14.12 14.52C14.4533 13.72 14.62 12.8667 14.62 11.96C14.62 11.04 14.4533 10.1933 14.12 9.42C13.8 8.64667 13.3467 7.96667 12.76 7.38C12.1867 6.79333 11.5067 6.34 10.72 6.02C9.94667 5.68667 9.1 5.52 8.18 5.52C7.26 5.52 6.4 5.68667 5.6 6.02C4.81333 6.35333 4.12667 6.82 3.54 7.42C2.96667 8.00667 2.51333 8.69333 2.18 9.48C1.86 10.2533 1.7 11.0933 1.7 12C1.7 12.9067 1.86 13.7533 2.18 14.54C2.51333 15.3133 2.96667 16 3.54 16.6C4.12667 17.1867 4.81333 17.6467 5.6 17.98C6.38667 18.3133 7.23333 18.48 8.14 18.48ZM8.32 16.18C7.52 16.18 6.80667 16.0067 6.18 15.66C5.55333 15.3 5.06 14.8067 4.7 14.18C4.35333 13.54 4.18 12.8133 4.18 12C4.18 11.1867 4.35333 10.4667 4.7 9.84C5.06 9.2 5.55333 8.70667 6.18 8.36C6.80667 8 7.52 7.82 8.32 7.82C8.96 7.82 9.54667 7.94667 10.08 8.2C10.6267 8.45333 11.0733 8.81333 11.42 9.28L10.8 9.78C10.5067 9.38 10.14 9.08 9.7 8.88C9.26 8.68 8.79333 8.58 8.3 8.58C7.67333 8.58 7.11333 8.72667 6.62 9.02C6.12667 9.3 5.73333 9.7 5.44 10.22C5.16 10.7267 5.02 11.32 5.02 12C5.02 12.68 5.16 13.28 5.44 13.8C5.73333 14.3067 6.12667 14.7067 6.62 15C7.11333 15.28 7.67333 15.42 8.3 15.42C8.79333 15.42 9.26 15.32 9.7 15.12C10.14 14.92 10.5067 14.62 10.8 14.22L11.42 14.7C11.0733 15.18 10.6267 15.5467 10.08 15.8C9.54667 16.0533 8.96 16.18 8.32 16.18ZM22.2653 19V18.28L28.1853 12.4C28.7453 11.84 29.1653 11.3533 29.4453 10.94C29.7253 10.5133 29.912 10.12 30.0053 9.76C30.112 9.4 30.1653 9.04667 30.1653 8.7C30.1653 7.82 29.8653 7.12667 29.2653 6.62C28.6653 6.1 27.7853 5.84 26.6253 5.84C25.7453 5.84 24.972 5.97333 24.3053 6.24C23.652 6.50667 23.0853 6.91333 22.6053 7.46L21.8853 6.82C22.4186 6.20667 23.092 5.73333 23.9053 5.4C24.732 5.06667 25.6653 4.9 26.7053 4.9C27.6253 4.9 28.4186 5.05333 29.0853 5.36C29.7653 5.65333 30.2853 6.08 30.6453 6.64C31.0186 7.18667 31.2053 7.84 31.2053 8.6C31.2053 9.05333 31.1386 9.5 31.0053 9.94C30.8853 10.3667 30.6586 10.82 30.3253 11.3C30.0053 11.78 29.5386 12.3267 28.9253 12.94L23.3653 18.48L23.0253 18.08H31.8853V19H22.2653ZM39.2363 19.1C38.1696 19.1 37.2229 18.8133 36.3963 18.24C35.5696 17.6667 34.9229 16.8533 34.4563 15.8C33.9896 14.7333 33.7563 13.4667 33.7563 12C33.7563 10.5333 33.9896 9.27333 34.4563 8.22C34.9229 7.15333 35.5696 6.33333 36.3963 5.76C37.2229 5.18667 38.1696 4.9 39.2363 4.9C40.3163 4.9 41.2629 5.18667 42.0763 5.76C42.9029 6.33333 43.5496 7.15333 44.0163 8.22C44.4829 9.27333 44.7163 10.5333 44.7163 12C44.7163 13.4667 44.4829 14.7333 44.0163 15.8C43.5496 16.8533 42.9029 17.6667 42.0763 18.24C41.2629 18.8133 40.3163 19.1 39.2363 19.1ZM39.2363 18.16C40.1296 18.16 40.9096 17.92 41.5763 17.44C42.2429 16.9467 42.7629 16.24 43.1363 15.32C43.5096 14.4 43.6963 13.2933 43.6963 12C43.6963 10.6933 43.5096 9.58667 43.1363 8.68C42.7629 7.76 42.2429 7.06 41.5763 6.58C40.9096 6.08667 40.1296 5.84 39.2363 5.84C38.3563 5.84 37.5763 6.08667 36.8963 6.58C36.2296 7.06 35.7096 7.76 35.3363 8.68C34.9629 9.58667 34.7763 10.6933 34.7763 12C34.7763 13.2933 34.9629 14.4 35.3363 15.32C35.7096 16.24 36.2296 16.9467 36.8963 17.44C37.5763 17.92 38.3563 18.16 39.2363 18.16ZM46.6403 19V18.28L52.5603 12.4C53.1203 11.84 53.5403 11.3533 53.8203 10.94C54.1003 10.5133 54.287 10.12 54.3803 9.76C54.487 9.4 54.5403 9.04667 54.5403 8.7C54.5403 7.82 54.2403 7.12667 53.6403 6.62C53.0403 6.1 52.1603 5.84 51.0003 5.84C50.1203 5.84 49.347 5.97333 48.6803 6.24C48.027 6.50667 47.4603 6.91333 46.9803 7.46L46.2603 6.82C46.7936 6.20667 47.467 5.73333 48.2803 5.4C49.107 5.06667 50.0403 4.9 51.0803 4.9C52.0003 4.9 52.7936 5.05333 53.4603 5.36C54.1403 5.65333 54.6603 6.08 55.0203 6.64C55.3936 7.18667 55.5803 7.84 55.5803 8.6C55.5803 9.05333 55.5136 9.5 55.3803 9.94C55.2603 10.3667 55.0336 10.82 54.7003 11.3C54.3803 11.78 53.9136 12.3267 53.3003 12.94L47.7403 18.48L47.4003 18.08H56.2603V19H46.6403ZM57.9098 19V18.28L63.8298 12.4C64.3898 11.84 64.8098 11.3533 65.0898 10.94C65.3698 10.5133 65.5565 10.12 65.6498 9.76C65.7565 9.4 65.8098 9.04667 65.8098 8.7C65.8098 7.82 65.5098 7.12667 64.9098 6.62C64.3098 6.1 63.4298 5.84 62.2698 5.84C61.3898 5.84 60.6165 5.97333 59.9498 6.24C59.2965 6.50667 58.7298 6.91333 58.2498 7.46L57.5298 6.82C58.0632 6.20667 58.7365 5.73333 59.5498 5.4C60.3765 5.06667 61.3098 4.9 62.3498 4.9C63.2698 4.9 64.0632 5.05333 64.7298 5.36C65.4098 5.65333 65.9298 6.08 66.2898 6.64C66.6632 7.18667 66.8498 7.84 66.8498 8.6C66.8498 9.05333 66.7832 9.5 66.6498 9.94C66.5298 10.3667 66.3032 10.82 65.9698 11.3C65.6498 11.78 65.1832 12.3267 64.5698 12.94L59.0098 18.48L58.6698 18.08H67.5298V19H57.9098ZM69.7147 21.86L70.4947 18.48L70.5947 19.06C70.3414 19.06 70.128 18.98 69.9547 18.82C69.7947 18.66 69.7147 18.46 69.7147 18.22C69.7147 17.98 69.7947 17.78 69.9547 17.62C70.128 17.46 70.328 17.38 70.5547 17.38C70.808 17.38 71.008 17.4667 71.1547 17.64C71.3147 17.8 71.3947 17.9933 71.3947 18.22C71.3947 18.3133 71.388 18.4067 71.3747 18.5C71.3614 18.5933 71.3414 18.6867 71.3147 18.78C71.288 18.8733 71.2547 18.9933 71.2147 19.14L70.4347 21.86H69.7147ZM80.1353 19V5H80.9953L87.4953 16.22H87.0353L93.5153 5H94.3553L94.3753 19H93.3753L93.3553 6.54H93.6353L87.4953 17.14H86.9953L80.8353 6.54H81.1353V19H80.1353ZM105.516 19V16.62L105.476 16.26V12.34C105.476 11.3667 105.21 10.6267 104.676 10.12C104.156 9.61333 103.39 9.36 102.376 9.36C101.656 9.36 100.983 9.48667 100.356 9.74C99.7431 9.98 99.2164 10.2933 98.7764 10.68L98.2764 9.96C98.7964 9.49333 99.4231 9.13333 100.156 8.88C100.89 8.61333 101.656 8.48 102.456 8.48C103.75 8.48 104.743 8.80667 105.436 9.46C106.13 10.1133 106.476 11.0867 106.476 12.38V19H105.516ZM101.756 19.08C100.983 19.08 100.31 18.96 99.7364 18.72C99.1764 18.4667 98.7431 18.1133 98.4364 17.66C98.1431 17.2067 97.9964 16.6867 97.9964 16.1C97.9964 15.5667 98.1164 15.0867 98.3564 14.66C98.6097 14.22 99.0231 13.8667 99.5964 13.6C100.17 13.32 100.936 13.18 101.896 13.18H105.736V13.96H101.916C100.836 13.96 100.076 14.16 99.6364 14.56C99.2097 14.96 98.9964 15.46 98.9964 16.06C98.9964 16.7267 99.2497 17.26 99.7564 17.66C100.263 18.06 100.976 18.26 101.896 18.26C102.776 18.26 103.516 18.06 104.116 17.66C104.73 17.26 105.183 16.68 105.476 15.92L105.756 16.6C105.476 17.36 104.996 17.9667 104.316 18.42C103.65 18.86 102.796 19.08 101.756 19.08ZM110.597 19V4.16H111.597V19H110.597ZM122.391 19V16.62L122.351 16.26V12.34C122.351 11.3667 122.085 10.6267 121.551 10.12C121.031 9.61333 120.265 9.36 119.251 9.36C118.531 9.36 117.858 9.48667 117.231 9.74C116.618 9.98 116.091 10.2933 115.651 10.68L115.151 9.96C115.671 9.49333 116.298 9.13333 117.031 8.88C117.765 8.61333 118.531 8.48 119.331 8.48C120.625 8.48 121.618 8.80667 122.311 9.46C123.005 10.1133 123.351 11.0867 123.351 12.38V19H122.391ZM118.631 19.08C117.858 19.08 117.185 18.96 116.611 18.72C116.051 18.4667 115.618 18.1133 115.311 17.66C115.018 17.2067 114.871 16.6867 114.871 16.1C114.871 15.5667 114.991 15.0867 115.231 14.66C115.485 14.22 115.898 13.8667 116.471 13.6C117.045 13.32 117.811 13.18 118.771 13.18H122.611V13.96H118.791C117.711 13.96 116.951 14.16 116.511 14.56C116.085 14.96 115.871 15.46 115.871 16.06C115.871 16.7267 116.125 17.26 116.631 17.66C117.138 18.06 117.851 18.26 118.771 18.26C119.651 18.26 120.391 18.06 120.991 17.66C121.605 17.26 122.058 16.68 122.351 15.92L122.631 16.6C122.351 17.36 121.871 17.9667 121.191 18.42C120.525 18.86 119.671 19.08 118.631 19.08ZM131.612 19.08C130.598 19.08 129.692 18.8533 128.892 18.4C128.105 17.9467 127.478 17.32 127.012 16.52C126.558 15.72 126.332 14.8067 126.332 13.78C126.332 12.74 126.558 11.82 127.012 11.02C127.478 10.22 128.105 9.6 128.892 9.16C129.692 8.70667 130.598 8.48 131.612 8.48C132.452 8.48 133.212 8.64 133.892 8.96C134.585 9.28 135.145 9.76 135.572 10.4L134.832 10.94C134.458 10.4067 133.992 10.0133 133.432 9.76C132.872 9.50667 132.265 9.38 131.612 9.38C130.798 9.38 130.065 9.56667 129.412 9.94C128.772 10.3 128.265 10.8133 127.892 11.48C127.532 12.1333 127.352 12.9 127.352 13.78C127.352 14.66 127.532 15.4333 127.892 16.1C128.265 16.7533 128.772 17.2667 129.412 17.64C130.065 18 130.798 18.18 131.612 18.18C132.265 18.18 132.872 18.0533 133.432 17.8C133.992 17.5467 134.458 17.1533 134.832 16.62L135.572 17.16C135.145 17.8 134.585 18.28 133.892 18.6C133.212 18.92 132.452 19.08 131.612 19.08ZM143.49 8.48C144.343 8.48 145.083 8.64667 145.71 8.98C146.35 9.3 146.843 9.79333 147.19 10.46C147.55 11.1133 147.73 11.9267 147.73 12.9V19H146.73V12.98C146.73 11.8067 146.43 10.9133 145.83 10.3C145.243 9.68667 144.416 9.38 143.35 9.38C142.536 9.38 141.83 9.54667 141.23 9.88C140.63 10.2133 140.17 10.68 139.85 11.28C139.543 11.88 139.39 12.6 139.39 13.44V19H138.39V4.16H139.39V11.46L139.21 11.14C139.53 10.3133 140.056 9.66667 140.79 9.2C141.523 8.72 142.423 8.48 143.49 8.48ZM151.847 19V8.56H152.847V19H151.847ZM152.347 6.02C152.12 6.02 151.927 5.94 151.767 5.78C151.607 5.62 151.527 5.43333 151.527 5.22C151.527 4.99333 151.607 4.8 151.767 4.64C151.927 4.48 152.12 4.4 152.347 4.4C152.587 4.4 152.78 4.48 152.927 4.64C153.087 4.78667 153.167 4.97333 153.167 5.2C153.167 5.42667 153.087 5.62 152.927 5.78C152.78 5.94 152.587 6.02 152.347 6.02ZM156.821 22.96C156.341 22.96 155.888 22.88 155.461 22.72C155.048 22.56 154.695 22.3267 154.401 22.02L154.901 21.26C155.168 21.54 155.455 21.7467 155.761 21.88C156.081 22.0133 156.441 22.08 156.841 22.08C157.321 22.08 157.741 21.9467 158.101 21.68C158.475 21.4133 158.821 20.9267 159.141 20.22L159.861 18.62L160.001 18.44L164.421 8.56H165.441L160.081 20.42C159.801 21.06 159.495 21.56 159.161 21.92C158.841 22.2933 158.488 22.56 158.101 22.72C157.715 22.88 157.288 22.96 156.821 22.96ZM159.841 19.26L155.001 8.56H156.061L160.461 18.38L159.841 19.26ZM171.575 19.08C170.522 19.08 169.588 18.8533 168.775 18.4C167.975 17.9467 167.342 17.32 166.875 16.52C166.422 15.72 166.195 14.8067 166.195 13.78C166.195 12.74 166.408 11.8267 166.835 11.04C167.275 10.24 167.875 9.61333 168.635 9.16C169.395 8.70667 170.248 8.48 171.195 8.48C172.142 8.48 172.988 8.7 173.735 9.14C174.495 9.58 175.088 10.2 175.515 11C175.955 11.7867 176.175 12.7 176.175 13.74C176.175 13.78 176.168 13.8267 176.155 13.88C176.155 13.92 176.155 13.9667 176.155 14.02H166.935V13.24H175.615L175.215 13.62C175.228 12.8067 175.055 12.08 174.695 11.44C174.348 10.7867 173.875 10.28 173.275 9.92C172.675 9.54667 171.982 9.36 171.195 9.36C170.422 9.36 169.728 9.54667 169.115 9.92C168.515 10.28 168.042 10.7867 167.695 11.44C167.348 12.08 167.175 12.8133 167.175 13.64V13.82C167.175 14.6733 167.362 15.4333 167.735 16.1C168.122 16.7533 168.648 17.2667 169.315 17.64C169.982 18 170.742 18.18 171.595 18.18C172.262 18.18 172.882 18.06 173.455 17.82C174.042 17.58 174.535 17.2133 174.935 16.72L175.515 17.38C175.062 17.94 174.488 18.3667 173.795 18.66C173.115 18.94 172.375 19.08 171.575 19.08ZM181.713 19L177.013 8.56H178.073L182.473 18.44H181.993L186.433 8.56H187.453L182.733 19H181.713Z" fill="white"/>
<path d="M191.755 11.679H195.004V12.453H191.755V11.679ZM191.845 15H190.945V8.7H195.391V9.483H191.845V15ZM199.432 15.072C198.952 15.072 198.505 14.991 198.091 14.829C197.683 14.667 197.329 14.442 197.029 14.154C196.729 13.86 196.495 13.518 196.327 13.128C196.159 12.738 196.075 12.312 196.075 11.85C196.075 11.388 196.159 10.962 196.327 10.572C196.495 10.182 196.729 9.843 197.029 9.555C197.329 9.261 197.683 9.033 198.091 8.871C198.499 8.709 198.946 8.628 199.432 8.628C199.912 8.628 200.353 8.709 200.755 8.871C201.163 9.027 201.517 9.252 201.817 9.546C202.123 9.834 202.357 10.173 202.519 10.563C202.687 10.953 202.771 11.382 202.771 11.85C202.771 12.318 202.687 12.747 202.519 13.137C202.357 13.527 202.123 13.869 201.817 14.163C201.517 14.451 201.163 14.676 200.755 14.838C200.353 14.994 199.912 15.072 199.432 15.072ZM199.432 14.271C199.78 14.271 200.101 14.211 200.395 14.091C200.695 13.971 200.953 13.803 201.169 13.587C201.391 13.365 201.562 13.107 201.682 12.813C201.808 12.519 201.871 12.198 201.871 11.85C201.871 11.502 201.808 11.181 201.682 10.887C201.562 10.593 201.391 10.338 201.169 10.122C200.953 9.9 200.695 9.729 200.395 9.609C200.101 9.489 199.78 9.429 199.432 9.429C199.078 9.429 198.751 9.489 198.451 9.609C198.157 9.729 197.899 9.9 197.677 10.122C197.455 10.338 197.281 10.593 197.155 10.887C197.035 11.181 196.975 11.502 196.975 11.85C196.975 12.198 197.035 12.519 197.155 12.813C197.281 13.107 197.455 13.365 197.677 13.587C197.899 13.803 198.157 13.971 198.451 14.091C198.751 14.211 199.078 14.271 199.432 14.271ZM204.938 13.479L204.893 12.381L208.466 8.7H209.492L206.729 11.616L206.225 12.174L204.938 13.479ZM204.146 15V8.7H205.046V15H204.146ZM208.61 15L206.027 11.994L206.63 11.328L209.663 15H208.61ZM212.319 15.072C211.839 15.072 211.38 15 210.942 14.856C210.504 14.706 210.159 14.514 209.907 14.28L210.24 13.578C210.48 13.788 210.786 13.962 211.158 14.1C211.53 14.238 211.917 14.307 212.319 14.307C212.685 14.307 212.982 14.265 213.21 14.181C213.438 14.097 213.606 13.983 213.714 13.839C213.822 13.689 213.876 13.521 213.876 13.335C213.876 13.119 213.804 12.945 213.66 12.813C213.522 12.681 213.339 12.576 213.111 12.498C212.889 12.414 212.643 12.342 212.373 12.282C212.103 12.222 211.83 12.153 211.554 12.075C211.284 11.991 211.035 11.886 210.807 11.76C210.585 11.634 210.405 11.466 210.267 11.256C210.129 11.04 210.06 10.764 210.06 10.428C210.06 10.104 210.144 9.807 210.312 9.537C210.486 9.261 210.75 9.042 211.104 8.88C211.464 8.712 211.92 8.628 212.472 8.628C212.838 8.628 213.201 8.676 213.561 8.772C213.921 8.868 214.233 9.006 214.497 9.186L214.2 9.906C213.93 9.726 213.645 9.597 213.345 9.519C213.045 9.435 212.754 9.393 212.472 9.393C212.118 9.393 211.827 9.438 211.599 9.528C211.371 9.618 211.203 9.738 211.095 9.888C210.993 10.038 210.942 10.206 210.942 10.392C210.942 10.614 211.011 10.791 211.149 10.923C211.293 11.055 211.476 11.16 211.698 11.238C211.926 11.316 212.175 11.388 212.445 11.454C212.715 11.514 212.985 11.583 213.255 11.661C213.531 11.739 213.78 11.841 214.002 11.967C214.23 12.093 214.413 12.261 214.551 12.471C214.689 12.681 214.758 12.951 214.758 13.281C214.758 13.599 214.671 13.896 214.497 14.172C214.323 14.442 214.053 14.661 213.687 14.829C213.327 14.991 212.871 15.072 212.319 15.072ZM216.073 15V8.7H218.899C219.625 8.7 220.183 8.847 220.573 9.141C220.963 9.429 221.158 9.825 221.158 10.329C221.158 10.671 221.08 10.959 220.924 11.193C220.774 11.427 220.57 11.607 220.312 11.733C220.054 11.859 219.775 11.922 219.475 11.922L219.637 11.652C219.997 11.652 220.315 11.715 220.591 11.841C220.867 11.967 221.086 12.153 221.248 12.399C221.41 12.639 221.491 12.939 221.491 13.299C221.491 13.839 221.287 14.259 220.879 14.559C220.477 14.853 219.877 15 219.079 15H216.073ZM216.973 14.271H219.043C219.541 14.271 219.922 14.187 220.186 14.019C220.45 13.851 220.582 13.587 220.582 13.227C220.582 12.861 220.45 12.594 220.186 12.426C219.922 12.258 219.541 12.174 219.043 12.174H216.892V11.445H218.818C219.274 11.445 219.628 11.361 219.88 11.193C220.132 11.025 220.258 10.773 220.258 10.437C220.258 10.101 220.132 9.849 219.88 9.681C219.628 9.513 219.274 9.429 218.818 9.429H216.973V14.271ZM221.93 15L224.783 8.7H225.674L228.536 15H227.591L225.044 9.204H225.404L222.857 15H221.93ZM223.145 13.425L223.388 12.705H226.934L227.195 13.425H223.145ZM230.295 11.418H233.535V12.183H230.295V11.418ZM230.376 14.217H234.048V15H229.476V8.7H233.922V9.483H230.376V14.217Z" fill="white"/>
</svg>
