<svg width="26" height="24" viewBox="0 0 26 24" fill="none" xmlns="http://www.w3.org/2000/svg">
<g clip-path="url(#clip0_8_48)">
<path d="M23.3809 0.730304C23.0195 0.744953 22.6875 0.847491 22.3945 0.964679C22.126 1.0721 21.1592 1.47737 19.6211 2.1219C18.083 2.76644 16.042 3.62093 13.874 4.5389C9.52832 6.36507 4.64063 8.42073 2.14063 9.47542C2.05274 9.5096 1.70606 9.61702 1.32031 9.90999C0.93457 10.203 0.504883 10.8475 0.504883 11.5457C0.504883 12.1121 0.788087 12.6883 1.12988 13.0155C1.4668 13.3426 1.81348 13.4989 2.10156 13.616C2.94629 13.9481 5.55371 14.993 6.68652 15.4422C7.08203 16.6336 8.01465 19.4364 8.23438 20.1248C8.41016 20.6864 8.58106 21.0526 8.8252 21.3602C8.94238 21.5116 9.08398 21.6532 9.26465 21.7606C9.32812 21.8045 9.40625 21.8338 9.47949 21.868C9.48926 21.868 9.49902 21.8729 9.51367 21.8778L9.48438 21.868C9.50391 21.8778 9.52344 21.8875 9.54785 21.8973C9.58203 21.9119 9.60644 21.9071 9.65527 21.9217C9.82617 21.9705 9.99707 22.0047 10.1582 22.0047C10.8369 22.0047 11.252 21.6385 11.252 21.6385L11.2812 21.619L14.2158 19.1336L17.8096 22.4588C17.873 22.5516 18.3857 23.245 19.5771 23.245C20.2852 23.245 20.8516 22.8983 21.2129 22.5272C21.5693 22.161 21.7939 21.785 21.8965 21.2723V21.2625C21.9648 20.9012 25.417 3.58187 25.417 3.58187L25.4072 3.61116C25.5146 3.13265 25.5439 2.66878 25.4219 2.20003C25.2949 1.73128 24.9531 1.26741 24.543 1.02816C24.1279 0.788898 23.7373 0.715655 23.3809 0.730304ZM22.8828 3.46468C22.751 4.14827 19.6797 19.5731 19.4795 20.5985L15.9102 17.2977C14.9922 16.4481 13.5566 16.4188 12.5996 17.2244L10.7783 18.7674L11.75 14.9686C11.75 14.9686 18.4541 8.18148 18.8594 7.78597C19.1816 7.47347 19.25 7.36116 19.25 7.24886C19.25 7.10726 19.1768 6.99984 19.001 6.99984C18.8447 6.99984 18.6348 7.1512 18.5225 7.21956C17.082 8.11312 10.9395 11.619 7.96094 13.3084C7.84863 13.245 7.74121 13.1766 7.61914 13.1278C6.6377 12.7323 4.7627 11.9803 3.66406 11.5457C6.25684 10.452 10.7002 8.58187 14.8408 6.8387C17.0137 5.92562 19.0498 5.07112 20.5879 4.42659C21.8867 3.8846 22.5605 3.6014 22.8877 3.46468H22.8828ZM19.4404 20.7791H19.4453C19.4404 20.7791 19.4404 20.7889 19.4404 20.7889C19.4404 20.7791 19.4404 20.7889 19.4404 20.7791Z" fill="white"/>
</g>
<defs>
<clipPath id="clip0_8_48">
<rect width="26" height="24" fill="white"/>
</clipPath>
</defs>
</svg>
